<svg xmlns="http://www.w3.org/2000/svg" width="1200" height="800" viewBox="0 0 1200 800" fill="none">
  <defs>
    <linearGradient id="bg" x1="80" y1="40" x2="1120" y2="760" gradientUnits="userSpaceOnUse">
      <stop stop-color="#081224"/>
      <stop offset="1" stop-color="#13294b"/>
    </linearGradient>
    <linearGradient id="grad" x1="160" y1="120" x2="950" y2="660" gradientUnits="userSpaceOnUse">
      <stop stop-color="#4f46e5"/>
      <stop offset="1" stop-color="#06b6d4"/>
    </linearGradient>
    <filter id="blur"><feGaussianBlur stdDeviation="24"/></filter>
  </defs>
  <rect width="1200" height="800" rx="36" fill="url(#bg)"/>
  <circle cx="950" cy="160" r="140" fill="#06b6d4" fill-opacity="0.22" filter="url(#blur)"/>
  <circle cx="280" cy="620" r="120" fill="#4f46e5" fill-opacity="0.18" filter="url(#blur)"/>
  <rect x="118" y="118" width="964" height="564" rx="32" fill="#0F1D35" stroke="#DDE5F0" stroke-opacity="0.12"/>
  <rect x="170" y="170" width="360" height="430" rx="28" fill="url(#grad)" fill-opacity="0.18" stroke="#fff" stroke-opacity="0.12"/>
  <circle cx="270" cy="280" r="58" fill="url(#grad)"/>
  <rect x="350" y="238" width="120" height="18" rx="9" fill="#fff" fill-opacity="0.82"/>
  <rect x="350" y="272" width="140" height="14" rx="7" fill="#fff" fill-opacity="0.45"/>
  <rect x="220" y="370" width="260" height="18" rx="9" fill="#fff" fill-opacity="0.82"/>
  <rect x="220" y="408" width="210" height="14" rx="7" fill="#fff" fill-opacity="0.45"/>
  <rect x="220" y="448" width="240" height="14" rx="7" fill="#fff" fill-opacity="0.45"/>
  <rect x="590" y="190" width="410" height="122" rx="24" fill="#fff" fill-opacity="0.06" stroke="#fff" stroke-opacity="0.1"/>
  <rect x="620" y="226" width="166" height="20" rx="10" fill="#fff" fill-opacity="0.86"/>
  <rect x="620" y="260" width="280" height="15" rx="7.5" fill="#fff" fill-opacity="0.35"/>
  <rect x="590" y="346" width="190" height="220" rx="24" fill="#fff" fill-opacity="0.06" stroke="#fff" stroke-opacity="0.1"/>
  <path d="M634 505L670 454L706 485L752 418" stroke="url(#grad)" stroke-width="16" stroke-linecap="round" stroke-linejoin="round"/>
  <circle cx="634" cy="505" r="11" fill="#fff"/>
  <circle cx="670" cy="454" r="11" fill="#fff"/>
  <circle cx="706" cy="485" r="11" fill="#fff"/>
  <circle cx="752" cy="418" r="11" fill="#fff"/>
  <rect x="810" y="346" width="190" height="220" rx="24" fill="#fff" fill-opacity="0.06" stroke="#fff" stroke-opacity="0.1"/>
  <rect x="850" y="388" width="110" height="110" rx="28" fill="url(#grad)"/>
  <path d="M878 442H932" stroke="#fff" stroke-width="14" stroke-linecap="round"/>
  <path d="M905 415V469" stroke="#fff" stroke-width="14" stroke-linecap="round"/>
  <text x="170" y="120" fill="#ffffff" font-family="Inter, Arial, sans-serif" font-size="44" font-weight="800">Modernize</text>
  <text x="170" y="660" fill="#c5d2ea" font-family="Inter, Arial, sans-serif" font-size="26" font-weight="500">Sprevonix Consulting &amp; Education Platform</text>
</svg>