<svg xmlns="http://www.w3.org/2000/svg" viewBox="0 0 800 560"><defs><linearGradient id="g" x1="0" x2="1"><stop stop-color="#5b8cff"/><stop offset="1" stop-color="#8b5cf6"/></linearGradient></defs><rect width="800" height="560" rx="28" fill="#0f1730"/><rect x="40" y="40" width="720" height="480" rx="24" fill="#131d39" stroke="rgba(255,255,255,.12)"/><rect x="70" y="78" width="200" height="28" rx="14" fill="url(#g)"/><rect x="70" y="126" width="300" height="14" rx="7" fill="#9fb7ff" opacity=".9"/><rect x="70" y="152" width="256" height="14" rx="7" fill="#62739f"/><rect x="70" y="210" width="320" height="210" rx="22" fill="#1a2650"/><rect x="420" y="210" width="310" height="96" rx="22" fill="#192448"/><rect x="420" y="324" width="148" height="96" rx="22" fill="#182342"/><rect x="582" y="324" width="148" height="96" rx="22" fill="#182342"/><path d="M105 377c42-68 84-31 122-95 31-53 98-72 131-12" fill="none" stroke="url(#g)" stroke-width="10" stroke-linecap="round"/><circle cx="226" cy="283" r="12" fill="#8b5cf6"/><circle cx="353" cy="270" r="12" fill="#5b8cff"/><rect x="443" y="232" width="115" height="18" rx="9" fill="#dbe5ff"/><rect x="443" y="262" width="180" height="12" rx="6" fill="#7788b1"/><rect x="446" y="347" width="80" height="12" rx="6" fill="#dbe5ff"/><circle cx="504" cy="382" r="28" fill="url(#g)"/><rect x="605" y="347" width="80" height="12" rx="6" fill="#dbe5ff"/><path d="M620 392h72" stroke="url(#g)" stroke-width="10" stroke-linecap="round"/></svg>