<svg xmlns="http://www.w3.org/2000/svg" viewBox="0 0 128 128"><defs><linearGradient id="g" x1="0" x2="1"><stop stop-color="#5b8cff"/><stop offset="1" stop-color="#8b5cf6"/></linearGradient></defs><rect width="128" height="128" rx="30" fill="#0f1730"/><path d="M33 38c0-7 5-12 12-12h38c7 0 12 5 12 12v8H33z" fill="url(#g)"/><path d="M33 56h62v34c0 7-5 12-12 12H45c-7 0-12-5-12-12z" fill="#182342"/><path d="M55 47c0-6 4-10 10-10h18c6 0 10 4 10 10v3H55z" fill="#dce6ff" opacity=".92"/><path d="M42 78c10-13 35-13 45 0" fill="none" stroke="url(#g)" stroke-width="8" stroke-linecap="round"/><circle cx="56" cy="72" r="5" fill="#8b5cf6"/><circle cx="83" cy="72" r="5" fill="#5b8cff"/></svg>